<svg width="230.301" height="87.9" viewBox="0 0 230.301 87.9" xmlns="http://www.w3.org/2000/svg"><g id="svgGroup" stroke-linecap="round" fill-rule="evenodd" font-size="9pt" stroke="#000" stroke-width="0.25mm" fill="none" style="stroke:#000;stroke-width:0.25mm;fill:none"><path d="M 130.801 86.4 L 83.201 86.4 A 8.317 8.317 0 0 1 81.953 86.313 Q 81.302 86.214 80.784 86.002 A 3.248 3.248 0 0 1 79.701 85.3 Q 78.874 84.473 78.668 82.912 A 8.546 8.546 0 0 1 78.601 81.8 L 78.601 64.6 A 49.916 49.916 0 0 1 78.767 60.393 Q 79.132 56.088 80.301 53.2 Q 82.001 49 85.001 46.5 L 97.901 35.6 Q 98.701 34.9 99.601 34.35 A 25.441 25.441 0 0 1 101.376 33.363 A 27.796 27.796 0 0 1 101.501 33.3 L 87.001 33.3 A 8.317 8.317 0 0 1 85.753 33.213 Q 85.102 33.114 84.584 32.902 A 3.248 3.248 0 0 1 83.501 32.2 Q 82.674 31.373 82.468 29.812 A 8.546 8.546 0 0 1 82.401 28.7 L 82.401 17 A 8.056 8.056 0 0 1 82.454 16.046 Q 82.537 15.349 82.751 14.8 Q 83.101 13.9 83.801 13.3 L 96.701 2.4 A 2.964 2.964 0 0 1 97.195 2.084 Q 97.449 1.953 97.755 1.845 A 5.912 5.912 0 0 1 98.051 1.75 A 6.17 6.17 0 0 1 99.29 1.525 A 7.471 7.471 0 0 1 99.901 1.5 L 129.401 1.5 A 28.553 28.553 0 0 1 134.735 1.967 Q 139.938 2.958 143.201 6.05 Q 147.766 10.378 147.989 18.28 A 29.1 29.1 0 0 1 148.001 19.1 L 148.001 28.5 Q 148.001 32.726 146.735 35.855 A 14.08 14.08 0 0 1 146.501 36.4 Q 145.001 39.7 142.201 42 L 129.301 52.8 A 21.227 21.227 0 0 0 128.531 53.339 A 25.718 25.718 0 0 0 128.051 53.7 Q 127.401 54.2 126.701 54.6 L 143.701 54.6 A 8.317 8.317 0 0 1 144.948 54.687 Q 145.599 54.786 146.117 54.998 A 3.248 3.248 0 0 1 147.201 55.7 Q 148.028 56.527 148.233 58.089 A 8.546 8.546 0 0 1 148.301 59.2 L 148.301 70.9 A 8.056 8.056 0 0 1 148.247 71.855 Q 148.164 72.552 147.951 73.1 Q 147.601 74 146.901 74.6 L 133.901 85.4 A 2.108 2.108 0 0 1 133.555 85.675 Q 133.197 85.907 132.655 86.099 A 6.025 6.025 0 0 1 132.651 86.1 A 5.305 5.305 0 0 1 131.291 86.381 A 6.314 6.314 0 0 1 130.801 86.4 Z M 96.101 74.5 L 143.701 74.5 A 6.709 6.709 0 0 0 144.686 74.433 Q 145.186 74.358 145.585 74.201 A 2.506 2.506 0 0 0 146.451 73.65 A 2.527 2.527 0 0 0 147.017 72.746 Q 147.301 71.999 147.301 70.9 L 147.301 59.2 A 6.709 6.709 0 0 0 147.233 58.214 Q 147.159 57.714 147.002 57.316 A 2.506 2.506 0 0 0 146.451 56.45 A 2.527 2.527 0 0 0 145.547 55.884 Q 144.799 55.6 143.701 55.6 L 115.201 55.6 L 115.201 53.5 A 7.247 7.247 0 0 1 115.231 52.811 Q 115.296 52.136 115.499 51.74 A 1.181 1.181 0 0 1 115.751 51.4 Q 116.301 50.9 117.801 50.5 L 131.401 46.2 A 36.258 36.258 0 0 0 136.709 44.138 Q 139.507 42.773 141.651 41.015 A 20.635 20.635 0 0 0 142.801 40 A 12.91 12.91 0 0 0 146.334 33.921 Q 146.896 31.869 146.984 29.42 A 25.648 25.648 0 0 0 147.001 28.5 L 147.001 19.1 Q 147.001 12.834 144.277 8.872 A 12.869 12.869 0 0 0 142.451 6.75 Q 138.51 3.07 131.608 2.577 A 30.979 30.979 0 0 0 129.401 2.5 L 99.901 2.5 A 6.709 6.709 0 0 0 98.915 2.567 Q 98.415 2.642 98.017 2.799 A 2.506 2.506 0 0 0 97.151 3.35 A 2.527 2.527 0 0 0 96.585 4.254 Q 96.301 5.002 96.301 6.1 L 96.301 17.8 A 6.709 6.709 0 0 0 96.368 18.786 Q 96.442 19.286 96.599 19.684 A 2.506 2.506 0 0 0 97.151 20.55 A 2.527 2.527 0 0 0 98.055 21.116 Q 98.802 21.4 99.901 21.4 L 121.601 21.4 A 6.494 6.494 0 0 1 122.294 21.435 Q 123.251 21.538 123.701 21.95 A 1.491 1.491 0 0 1 124.054 22.468 Q 124.301 23.039 124.301 24 Q 124.301 25.6 123.751 26.4 A 2.142 2.142 0 0 1 123.19 26.944 Q 122.601 27.35 121.601 27.6 L 108.201 31.8 A 42.936 42.936 0 0 0 103.571 33.444 A 37.262 37.262 0 0 0 101.901 34.2 Q 99.001 35.6 96.901 38 Q 94.801 40.4 93.651 44.15 A 22.828 22.828 0 0 0 92.95 47.251 Q 92.697 48.84 92.587 50.682 A 50.468 50.468 0 0 0 92.501 53.7 L 92.501 70.9 A 6.709 6.709 0 0 0 92.568 71.886 Q 92.642 72.386 92.799 72.784 A 2.506 2.506 0 0 0 93.351 73.65 A 2.527 2.527 0 0 0 94.255 74.216 Q 95.002 74.5 96.101 74.5 Z M 32.101 57.8 L 49.001 57.8 L 49.001 70.9 A 6.709 6.709 0 0 0 49.068 71.886 Q 49.142 72.386 49.299 72.784 A 2.506 2.506 0 0 0 49.851 73.65 A 2.527 2.527 0 0 0 50.755 74.216 Q 51.502 74.5 52.601 74.5 L 68.001 74.5 A 6.709 6.709 0 0 0 68.986 74.433 Q 69.486 74.358 69.885 74.201 A 2.506 2.506 0 0 0 70.751 73.65 A 2.527 2.527 0 0 0 71.317 72.746 Q 71.601 71.999 71.601 70.9 L 71.601 6.1 A 6.709 6.709 0 0 0 71.533 5.114 Q 71.459 4.614 71.302 4.216 A 2.506 2.506 0 0 0 70.751 3.35 A 2.527 2.527 0 0 0 69.847 2.784 Q 69.099 2.5 68.001 2.5 L 52.601 2.5 A 6.709 6.709 0 0 0 51.615 2.567 Q 51.115 2.642 50.717 2.799 A 2.506 2.506 0 0 0 49.851 3.35 A 2.527 2.527 0 0 0 49.285 4.254 Q 49.001 5.002 49.001 6.1 L 49.001 36.9 L 39.701 36.9 A 3.538 3.538 0 0 1 38.691 36.763 A 2.755 2.755 0 0 1 37.451 36 Q 36.656 35.158 36.604 33.704 A 5.774 5.774 0 0 1 36.601 33.5 L 36.601 6.1 A 6.709 6.709 0 0 0 36.533 5.114 Q 36.459 4.614 36.302 4.216 A 2.506 2.506 0 0 0 35.751 3.35 A 2.527 2.527 0 0 0 34.847 2.784 Q 34.099 2.5 33.001 2.5 L 17.501 2.5 A 6.709 6.709 0 0 0 16.515 2.567 Q 16.015 2.642 15.617 2.799 A 2.506 2.506 0 0 0 14.751 3.35 A 2.527 2.527 0 0 0 14.185 4.254 Q 13.901 5.002 13.901 6.1 L 13.901 41.2 Q 13.901 49.7 18.151 53.75 A 12.436 12.436 0 0 0 22.303 56.296 Q 26.19 57.8 32.101 57.8 Z M 55.101 86.4 L 39.701 86.4 A 8.317 8.317 0 0 1 38.453 86.313 Q 37.802 86.214 37.284 86.002 A 3.248 3.248 0 0 1 36.201 85.3 Q 35.374 84.473 35.168 82.912 A 8.546 8.546 0 0 1 35.101 81.8 L 35.101 69.7 L 19.201 69.7 A 28.833 28.833 0 0 1 13.87 69.241 Q 7.649 68.069 4.451 63.9 A 20.934 20.934 0 0 1 0.64 55.461 A 30.037 30.037 0 0 1 0.001 49.1 L 0.001 17 A 8.056 8.056 0 0 1 0.054 16.046 Q 0.137 15.349 0.351 14.8 Q 0.701 13.9 1.401 13.3 L 14.301 2.4 A 2.964 2.964 0 0 1 14.795 2.084 Q 15.049 1.953 15.355 1.845 A 5.912 5.912 0 0 1 15.651 1.75 A 6.17 6.17 0 0 1 16.89 1.525 A 7.471 7.471 0 0 1 17.501 1.5 L 33.001 1.5 A 8.317 8.317 0 0 1 34.248 1.587 Q 34.899 1.686 35.417 1.898 A 3.248 3.248 0 0 1 36.501 2.6 Q 37.328 3.427 37.533 4.989 A 8.546 8.546 0 0 1 37.601 6.1 L 37.601 12.4 L 49.401 2.4 A 2.964 2.964 0 0 1 49.895 2.084 Q 50.149 1.953 50.455 1.845 A 5.912 5.912 0 0 1 50.751 1.75 A 6.17 6.17 0 0 1 51.99 1.525 A 7.471 7.471 0 0 1 52.601 1.5 L 68.001 1.5 A 8.317 8.317 0 0 1 69.248 1.587 Q 69.899 1.686 70.417 1.898 A 3.248 3.248 0 0 1 71.501 2.6 Q 72.328 3.427 72.533 4.989 A 8.546 8.546 0 0 1 72.601 6.1 L 72.601 70.9 A 8.056 8.056 0 0 1 72.547 71.855 Q 72.464 72.552 72.251 73.1 Q 71.901 74 71.201 74.6 L 58.201 85.4 A 2.108 2.108 0 0 1 57.855 85.675 Q 57.497 85.907 56.955 86.099 A 6.025 6.025 0 0 1 56.951 86.1 A 5.305 5.305 0 0 1 55.591 86.381 A 6.314 6.314 0 0 1 55.101 86.4 Z M 224.301 70.9 L 211.301 81.7 A 17.694 17.694 0 0 1 208.084 83.85 Q 206.408 84.738 204.353 85.453 A 37.343 37.343 0 0 1 201.751 86.25 A 41.404 41.404 0 0 1 196.872 87.223 Q 194.493 87.562 191.75 87.731 A 95.199 95.199 0 0 1 185.901 87.9 A 74.6 74.6 0 0 1 179.702 87.658 Q 176.59 87.398 173.941 86.858 A 33.6 33.6 0 0 1 170.101 85.85 Q 165.112 84.201 161.871 81.677 A 17.824 17.824 0 0 1 160.401 80.4 Q 156.901 77 155.601 72.6 Q 154.301 68.2 154.301 63.5 L 154.301 32.4 A 29.564 29.564 0 0 1 154.735 27.233 A 24.212 24.212 0 0 1 155.601 23.8 A 14.38 14.38 0 0 1 159.782 17.544 A 17.344 17.344 0 0 1 160.301 17.1 L 173.301 6.2 A 17.694 17.694 0 0 1 176.517 4.05 Q 178.193 3.163 180.248 2.447 A 37.343 37.343 0 0 1 182.851 1.65 Q 189.001 0 198.801 0 A 95.478 95.478 0 0 1 204.999 0.189 Q 208.025 0.387 210.613 0.79 A 41.694 41.694 0 0 1 214.601 1.6 Q 219.084 2.757 222.13 4.568 A 16.817 16.817 0 0 1 224.251 6.05 A 15.417 15.417 0 0 1 227.69 9.987 A 14.064 14.064 0 0 1 229.001 12.85 A 25.981 25.981 0 0 1 230.174 18.636 A 31.61 31.61 0 0 1 230.301 21.5 L 230.301 55.6 A 28.696 28.696 0 0 1 229.741 61.358 A 24.834 24.834 0 0 1 229.001 64.15 A 14.447 14.447 0 0 1 224.511 70.724 A 17.295 17.295 0 0 1 224.301 70.9 Z M 108.901 41.7 L 132.201 34 Q 133.501 33.5 134.301 32.35 Q 135.101 31.2 135.101 29.3 L 135.101 20.2 Q 135.101 15.6 132.501 14.05 A 9.706 9.706 0 0 0 130.075 13.047 Q 128.073 12.5 125.401 12.5 L 105.301 12.5 L 105.301 11.5 L 125.401 11.5 Q 128.748 11.5 131.104 12.297 A 9.463 9.463 0 0 1 133.301 13.35 A 5.636 5.636 0 0 1 135.444 16.095 Q 135.834 17.095 135.992 18.354 A 14.814 14.814 0 0 1 136.101 20.2 L 136.101 29.3 A 8.993 8.993 0 0 1 135.998 30.702 Q 135.881 31.442 135.631 32.041 A 4.192 4.192 0 0 1 135.151 32.9 Q 134.201 34.2 132.601 34.9 L 109.301 42.6 Q 106.604 43.563 105.485 44.943 A 4.16 4.16 0 0 0 105.401 45.05 Q 104.301 46.5 104.301 49.9 L 104.301 64.5 L 138.301 64.5 L 138.301 65.5 L 103.401 65.5 L 103.401 49.9 A 18.162 18.162 0 0 1 103.496 47.973 Q 103.738 45.708 104.601 44.45 A 5.432 5.432 0 0 1 105.889 43.152 Q 107.06 42.294 108.901 41.7 Z M 60.801 65.5 L 59.801 65.5 L 59.801 47.8 L 35.901 47.8 A 19.435 19.435 0 0 1 32.818 47.573 Q 31.22 47.315 29.952 46.767 A 7.974 7.974 0 0 1 27.501 45.15 A 8.397 8.397 0 0 1 25.396 41.623 Q 24.987 40.33 24.859 38.772 A 17.988 17.988 0 0 1 24.801 37.3 L 24.801 11.5 L 25.801 11.5 L 25.801 37.3 A 14.629 14.629 0 0 0 26.033 39.998 Q 26.314 41.495 26.937 42.658 A 6.919 6.919 0 0 0 28.301 44.45 A 7.761 7.761 0 0 0 31.1 46.097 Q 32.294 46.515 33.763 46.684 A 18.667 18.667 0 0 0 35.901 46.8 L 59.801 46.8 L 59.801 11.5 L 60.801 11.5 L 60.801 65.5 Z M 229.301 55.6 L 229.301 21.5 A 28.178 28.178 0 0 0 228.912 16.723 A 22.561 22.561 0 0 0 228.001 13.15 A 13.689 13.689 0 0 0 224.312 7.57 A 16.827 16.827 0 0 0 223.301 6.7 Q 220.638 4.586 216.411 3.207 A 37.517 37.517 0 0 0 213.951 2.5 A 42.947 42.947 0 0 0 209.059 1.59 Q 204.569 1 198.801 1 A 93.574 93.574 0 0 0 192.86 1.177 Q 187.555 1.516 183.651 2.5 Q 177.701 4 174.301 6.7 A 15.325 15.325 0 0 0 171.02 10.225 A 13.62 13.62 0 0 0 169.551 13.15 A 22.736 22.736 0 0 0 168.364 18.404 A 28.556 28.556 0 0 0 168.201 21.5 L 168.201 55.6 Q 168.201 60.2 169.551 63.95 A 13.854 13.854 0 0 0 173.581 69.757 A 16.87 16.87 0 0 0 174.301 70.35 A 18.313 18.313 0 0 0 177.484 72.314 Q 180.118 73.61 183.651 74.5 A 42.947 42.947 0 0 0 188.542 75.411 Q 193.033 76 198.801 76 A 93.574 93.574 0 0 0 204.742 75.823 Q 210.046 75.485 213.951 74.5 Q 219.901 73 223.301 70.35 A 14.638 14.638 0 0 0 226.53 66.918 A 13.06 13.06 0 0 0 228.001 63.95 A 23.422 23.422 0 0 0 229.133 58.797 A 29.554 29.554 0 0 0 229.301 55.6 Z M 179.001 53.3 L 179.001 23.8 A 17.436 17.436 0 0 1 179.318 20.414 A 14.577 14.577 0 0 1 179.901 18.3 A 9.42 9.42 0 0 1 182.864 14.16 A 11.217 11.217 0 0 1 183.001 14.05 A 11.972 11.972 0 0 1 185.151 12.707 Q 186.825 11.878 189.051 11.3 Q 191.923 10.554 195.881 10.365 A 59.054 59.054 0 0 1 198.701 10.3 A 55.416 55.416 0 0 1 203.959 10.53 Q 209.106 11.023 212.184 12.572 A 9.956 9.956 0 0 1 214.451 14.1 Q 218.601 17.9 218.601 23.8 L 218.601 53.3 A 14.107 14.107 0 0 1 217.834 58.041 A 12.145 12.145 0 0 1 214.451 63.05 Q 211.081 66.095 202.799 66.668 A 59.589 59.589 0 0 1 198.701 66.8 A 55.629 55.629 0 0 1 194.704 66.665 Q 191.487 66.433 189.051 65.8 A 22.875 22.875 0 0 1 186.497 64.985 Q 185.225 64.489 184.205 63.879 A 10.996 10.996 0 0 1 183.001 63.05 A 9.703 9.703 0 0 1 180.53 60.183 A 9.258 9.258 0 0 1 179.901 58.8 A 15.271 15.271 0 0 1 179.08 55.037 A 18.618 18.618 0 0 1 179.001 53.3 Z M 180.001 23.8 L 180.001 53.3 A 13.102 13.102 0 0 0 180.661 57.552 A 10.891 10.891 0 0 0 184.001 62.4 A 10.799 10.799 0 0 0 187.155 64.193 Q 190.347 65.418 195.378 65.709 A 57.553 57.553 0 0 0 198.701 65.8 Q 207.097 65.8 211.429 63.707 A 10.138 10.138 0 0 0 213.501 62.4 A 11.025 11.025 0 0 0 217.565 54.349 A 14.996 14.996 0 0 0 217.601 53.3 L 217.601 23.8 Q 217.601 18.2 213.501 14.75 A 11.169 11.169 0 0 0 210.294 12.931 Q 206.057 11.3 198.701 11.3 Q 190.305 11.3 186.034 13.394 A 9.742 9.742 0 0 0 184.001 14.7 A 11.136 11.136 0 0 0 180.03 22.837 A 15.439 15.439 0 0 0 180.001 23.8 Z M 190.801 52 L 190.801 25.1 A 4.254 4.254 0 0 1 192.118 21.978 A 5.511 5.511 0 0 1 192.251 21.85 Q 193.598 20.596 198.095 20.507 A 35.67 35.67 0 0 1 198.801 20.5 A 30.175 30.175 0 0 1 200.857 20.565 Q 203.945 20.777 205.152 21.684 A 2.466 2.466 0 0 1 205.351 21.85 A 4.612 4.612 0 0 1 206.409 23.274 A 4.264 4.264 0 0 1 206.801 25.1 L 206.801 52 Q 206.801 54 205.351 55.35 Q 204.004 56.604 199.506 56.693 A 35.67 35.67 0 0 1 198.801 56.7 A 30.175 30.175 0 0 1 196.744 56.636 Q 193.656 56.424 192.449 55.516 A 2.466 2.466 0 0 1 192.251 55.35 A 4.373 4.373 0 0 1 190.804 52.186 A 5.395 5.395 0 0 1 190.801 52 Z M 191.801 33.5 L 191.801 52 Q 191.801 52.7 192.001 53.4 Q 192.201 54.1 192.901 54.5 L 192.901 36 Q 192.901 35.3 192.701 34.6 Q 192.501 33.9 191.801 33.5 Z" vector-effect="non-scaling-stroke"/></g></svg>